<svg width="32" height="32" viewBox="0 0 32 32" fill="none" xmlns="http://www.w3.org/2000/svg">
  <!-- Chef hat base -->
  <ellipse cx="16" cy="26" rx="12" ry="4" fill="#f97316"/>
  
  <!-- Chef hat main body -->
  <path d="M6 22c0-5.5 4.5-10 10-10s10 4.5 10 10v4H6v-4z" fill="#ffffff"/>
  
  <!-- Chef hat pleats -->
  <path d="M10 22v3h2v-3c0-1.1-.9-2-2-2s-2 .9-2 2z" fill="#fed7aa"/>
  <path d="M14 22v3h2v-3c0-1.1-.9-2-2-2s-2 .9-2 2z" fill="#fed7aa"/>
  <path d="M18 22v3h2v-3c0-1.1-.9-2-2-2s-2 .9-2 2z" fill="#fed7aa"/>
  <path d="M22 22v3h2v-3c0-1.1-.9-2-2-2s-2 .9-2 2z" fill="#fed7aa"/>
  
  <!-- Chef hat puff -->
  <circle cx="12" cy="14" r="3" fill="#ffffff"/>
  <circle cx="20" cy="14" r="3" fill="#ffffff"/>
  <circle cx="16" cy="10" r="4" fill="#ffffff"/>
  
  <!-- Cooking utensil accent -->
  <path d="M8 8l2-2 1 1-2 2-1-1z" fill="#f97316"/>
  <path d="M22 8l2-2 1 1-2 2-1-1z" fill="#f97316"/>
</svg>